#!OML:ASF F:\VICON\USERDATA\INSTALL\rory3\rory3.ASF
:FULLY-SPECIFIED
:DEGREES
52
root -1.35323 18.2809 -35.7846 4.56333 -0.898473 -0.582845
lowerback 2.74712 -0.939895 -3.96696
upperback -2.98699 -1.31188 3.47823
thorax -4.47472 -0.459396 5.94941
lowerneck -10.1488 -8.62845 -17.7582
upperneck 21.8415 -11.3836 11.4196
head 10.3538 -5.65439 5.53091
rclavicle -1.08089e-014 -7.95139e-016
rhumerus -33.3824 -13.1504 -74.9003
rradius 30.6375
rwrist -13.0347
rhand -11.6553 17.7269
rfingers 7.12502
rthumb 14.3891 -11.7543
lclavicle -1.08089e-014 -7.95139e-016
lhumerus -34.7682 15.6179 82.7689
lradius 27.4826
lwrist -8.82816
lhand 0.270808 33.4645
lfingers 7.12502
lthumb 25.8497 61.7278
rfemur -10.5624 0.808013 22.9453
rtibia 30.3648
rfoot 0 0
rtoes 0
lfemur -9.17868 -5.8342 -18.9179
ltibia 27.6086
lfoot 0 0
ltoes 0
53
root -1.36502 18.2765 -35.7723 4.50893 -0.347224 -0.488825
lowerback 2.80464 -1.08466 -4.09073
upperback -2.98858 -1.51381 3.47417
thorax -4.48009 -0.555933 6.02973
lowerneck -10.3656 -8.42934 -17.6105
upperneck 22.1683 -11.097 11.3408
head 10.4498 -5.51441 5.52466
rclavicle -8.14085e-015 3.97569e-015
rhumerus -33.5063 -12.9157 -74.9411
rradius 30.925
rwrist -13.2053
rhand -11.6765 17.8263
rfingers 7.12502
rthumb 14.3687 -11.6564
lclavicle -8.14085e-015 3.97569e-015
lhumerus -34.7468 15.5753 82.8052
lradius 27.477
lwrist -8.91312
lhand 0.366337 33.8272
lfingers 7.12502
lthumb 25.9412 62.0771
rfemur -10.3971 0.629524 22.9651
rtibia 30.3704
rfoot 0 0
rtoes 0
lfemur -9.16084 -5.8828 -18.8902
ltibia 27.636
lfoot 0 0
ltoes 0
54
root -1.37794 18.2732 -35.7639 4.48617 -0.120585 -0.578047
lowerback 2.81655 -1.12468 -4.07006
upperback -2.9584 -1.56515 3.5171
thorax -4.44777 -0.583213 6.06602
lowerneck -10.8428 -8.29506 -17.4283
upperneck 22.6667 -10.8619 11.1938
head 10.663 -5.39491 5.4753
rclavicle 2.28323e-014 -1.03368e-014
rhumerus -33.5819 -12.7861 -74.9468
rradius 31.1162
rwrist -13.3731
rhand -11.4283 18.2143
rfingers 7.12502
rthumb 14.6078 -11.2512
lclavicle 2.28323e-014 -1.03368e-014
lhumerus -34.6099 15.5497 82.844
lradius 27.4157
lwrist -8.89781
lhand 0.334419 33.4237
lfingers 7.12502
lthumb 25.9106 61.678
rfemur -10.3604 0.704898 23.1616
rtibia 30.438
rfoot 0 0
rtoes 0
lfemur -9.16515 -5.75294 -18.6899
ltibia 27.6701
lfoot 0 0
ltoes 0
55
root -1.38755 18.272 -35.7608 4.51039 -0.16337 -0.641709
lowerback 2.76398 -1.07012 -4.03116
upperback -2.87807 -1.48888 3.51924
thorax -4.34459 -0.551485 6.03771
lowerneck -11.5346 -8.21704 -17.1805
upperneck 23.2234 -10.6723 10.9831
head 10.9424 -5.29075 5.37967
rclavicle -1.35562e-014 1.19271e-014
rhumerus -33.4322 -12.6667 -75.0819
rradius 31.2856
rwrist -13.6865
rhand -11.5178 18.139
rfingers 7.12502
rthumb 14.5216 -11.3328
lclavicle -1.35562e-014 1.19271e-014
lhumerus -34.4377 15.4972 82.8783
lradius 27.4488
lwrist -8.9521
lhand 0.381614 32.8025
lfingers 7.12502
lthumb 25.9558 61.0502
rfemur -10.437 0.774353 23.2635
rtibia 30.5318
rfoot 0 0
rtoes 0
lfemur -9.20323 -5.56988 -18.5673
ltibia 27.6983
lfoot 0 0
ltoes 0
56
root -1.3956 18.2674 -35.7586 4.51351 -0.130836 -0.486151
lowerback 2.76488 -1.0229 -4.18529
upperback -2.84137 -1.43623 3.4427
thorax -4.31251 -0.523369 6.0409
lowerneck -11.7958 -8.10142 -16.9353
upperneck 23.3599 -10.4904 10.8537
head 10.9898 -5.19217 5.31651
rclavicle -9.71405e-015 -1.59028e-015
rhumerus -33.3861 -12.5833 -75.2114
rradius 31.5249
rwrist -14.1111
rhand -11.76 17.8707
rfingers 7.12502
rthumb 14.2883 -11.6178
lclavicle -9.71405e-015 -1.59028e-015
lhumerus -34.3972 15.2602 82.9296
lradius 27.5748
lwrist -8.94376
lhand 0.37883 32.6886
lfingers 7.12502
lthumb 25.9532 60.9367
rfemur -10.4941 0.668317 23.1107
rtibia 30.6569
rfoot 0 0
rtoes 0
lfemur -9.25118 -5.46629 -18.6953
ltibia 27.7736
lfoot 0 0
ltoes 0
